<svg width="557" height="281" viewBox="0 0 557 281" fill="none" xmlns="http://www.w3.org/2000/svg">
<g clip-path="url(#clip0_7_208)">
<g clip-path="url(#clip1_7_208)">
<g clip-path="url(#clip2_7_208)">
<path d="M59.0633 143.624C61.095 144.205 63.1267 143.043 63.7071 141.154C64.2876 139.12 63.1266 137.085 61.2401 136.504C59.2084 135.923 57.1768 137.085 56.5963 138.974C56.0158 140.863 57.1768 143.043 59.0633 143.624Z" fill="#25A1B0"/>
<path d="M201.28 162.949C199.248 162.949 197.507 164.693 197.507 166.727C197.507 168.762 199.248 170.505 201.28 170.505C203.311 170.505 205.053 168.762 205.053 166.727C205.053 164.693 203.311 162.949 201.28 162.949Z" fill="#25A1B0"/>
<path d="M131.913 262.773C133.997 262.773 135.686 261.082 135.686 258.995C135.686 256.909 133.997 255.217 131.913 255.217C129.829 255.217 128.14 256.909 128.14 258.995C128.14 261.082 129.829 262.773 131.913 262.773Z" fill="#25A1B0"/>
<path d="M62.1108 211.481C64.1946 211.481 65.8839 209.789 65.8839 207.703C65.8839 205.616 64.1946 203.925 62.1108 203.925C60.027 203.925 58.3377 205.616 58.3377 207.703C58.3377 209.789 60.027 211.481 62.1108 211.481Z" fill="#25A1B0"/>
<path d="M174.723 123.717C172.256 124.299 170.95 127.059 171.966 129.384C173.417 132.726 176.464 133.017 177.916 137.376C178.061 137.812 178.641 137.812 178.931 137.521C180.673 134.615 181.108 130.401 179.512 126.478C178.786 124.299 176.755 123.136 174.723 123.717Z" fill="#25A1B0"/>
<path d="M30.0396 149C34.1029 150.453 38.3113 149.727 41.0686 147.983C41.5039 147.693 41.3588 147.111 40.9235 146.966C36.5699 145.658 36.1346 142.607 32.6517 141.299C30.3298 140.427 27.7177 141.735 27.1372 144.351C26.7018 146.239 28.0079 148.274 30.0396 149Z" fill="#25A1B0"/>
<path d="M110 0.5C49.3404 0.5 0 49.9032 0 110.785V170.215C0 230.951 49.3404 280.5 110 280.5C170.66 280.5 220 231.097 220 170.215V110.785C220 49.9032 170.66 0.5 110 0.5ZM110 7.18396C167.032 7.18396 213.324 53.5358 213.324 110.64V135.196C204.908 129.094 197.507 118.922 189.815 108.17C173.272 85.212 154.406 59.2026 116.675 59.2026C87.2164 59.2026 74.1557 75.186 68.9314 84.7761C63.4169 94.9473 61.9657 106.862 65.5937 112.384C66.6095 113.982 68.6412 114.418 70.2375 113.401C70.5277 113.256 70.8179 112.965 70.9631 112.674C72.124 111.221 73.4301 109.768 74.8813 108.461C77.6385 105.845 82.1372 105.264 86.2005 107.008C91.8602 109.478 95.1979 115.58 95.1979 123.863C95.1979 132.436 90.409 141.154 81.847 147.983C68.3509 158.881 41.6491 167.744 6.67547 160.77V110.64C6.67547 53.6811 52.9683 7.18396 110 7.18396ZM80.9762 183.001C100.857 179.369 117.546 167.163 124.947 149.146C131.913 132.29 130.026 113.401 120.158 101.341C118.852 99.7423 117.546 98.4346 116.095 97.1269C135.831 101.777 150.488 119.504 150.488 140.573C150.488 165.129 130.462 185.181 105.937 185.181C96.9393 185.181 88.8127 184.454 80.9762 183.001ZM94.3272 97.5628C102.309 96.2551 109.565 99.0158 114.934 105.554C123.206 115.871 124.657 132 118.707 146.675C108.984 170.505 80.1055 182.711 51.5171 175.3C51.2269 175.3 51.0818 175.155 50.7915 175.155C46.2929 173.702 41.7942 172.249 37.1504 170.65C36.4248 170.36 35.8443 170.215 35.1187 169.924C55.2902 169.343 73.285 163.531 86.0554 153.214C96.3588 144.932 101.873 134.47 101.873 123.863C101.873 112.965 96.9393 104.392 88.8126 100.905C88.2322 100.614 87.6517 100.469 86.9261 100.178C89.3931 99.1611 91.8601 98.144 94.3272 97.5628ZM22.7836 225.575C28.5884 227.609 34.6834 229.498 40.7784 231.533C39.9076 232.114 39.1821 232.55 38.3113 233.131C35.9894 234.584 33.6675 236.037 31.3456 237.49C28.4433 233.567 25.3958 229.644 22.7836 225.575ZM77.2031 268.149C86.3456 263.064 95.343 259.867 109.42 259.867C109.855 259.867 110.29 259.867 110.58 259.867C112.467 259.867 113.918 258.414 113.918 256.67C113.918 256.67 113.918 256.67 113.918 256.525C113.918 254.636 112.467 253.183 110.58 253.183C110.145 253.183 109.71 253.183 109.274 253.183C91.1346 253.183 80.2506 258.123 68.9314 265.098C63.562 262.773 58.4828 260.012 53.6939 256.961C68.7863 247.225 83.0079 238.217 109.274 238.217C135.541 238.217 149.763 247.371 164.855 257.106C165 257.251 165.145 257.251 165.29 257.397C149.182 267.713 130.171 273.671 109.71 273.671C98.5356 273.525 87.5066 271.636 77.2031 268.149ZM171.53 253.183C170.514 252.602 169.644 252.02 168.628 251.439C152.665 241.268 137.573 231.533 109.42 231.533C81.1214 231.533 66.1741 241.268 50.2111 251.439C49.4855 251.875 48.7599 252.456 47.8892 252.892C43.6807 249.696 39.7625 246.208 36.1346 242.576C38.1662 241.413 40.0528 240.106 42.0844 238.798C58.3377 228.336 76.7678 216.566 109.42 216.566C130.607 216.566 145.699 221.507 158.179 227.9C165 231.387 170.95 235.165 176.755 238.798C178.931 240.251 181.108 241.559 183.285 243.012C179.802 246.499 175.739 249.986 171.53 253.183ZM188.074 237.781C185.607 236.328 183.14 234.729 180.528 232.986C176.174 230.225 171.53 227.174 166.306 224.268C179.947 214.242 191.121 201.019 198.377 185.762C199.248 184.018 198.522 182.129 196.781 181.258C195.04 180.386 193.153 181.112 192.282 182.856C184.881 198.113 173.562 211.335 159.485 220.78C152.375 217.293 144.248 214.242 134.67 212.207C160.211 203.344 178.931 181.258 182.269 153.359C182.559 151.47 181.108 149.872 179.367 149.581C177.48 149.291 175.884 150.744 175.594 152.488C171.53 186.053 144.393 209.592 109.71 209.592C109.565 209.592 109.42 209.592 109.274 209.592C81.4116 209.592 62.9815 218.019 48.3245 226.592C39.6174 224.122 31.2005 221.216 23.0739 218.455C21.3325 217.874 19.4459 217.293 17.7045 216.566C14.0765 209.447 11.3193 202.036 9.43272 194.044C15.8179 196.079 22.058 198.113 28.0079 200.147C33.8127 202.036 39.4723 204.07 45.277 205.814C45.5673 205.959 46.0026 205.959 46.2929 205.959C47.7441 205.959 49.0501 205.087 49.4855 203.634C50.066 201.891 49.0501 200.002 47.3087 199.421C41.6491 197.677 35.9894 195.788 30.1847 193.754C23.0739 191.429 15.8179 188.959 7.98153 186.489C7.11082 180.967 6.67547 175.445 6.67547 169.779V167.744C16.8338 170.65 26.1214 173.847 34.9736 176.753C58.628 184.745 78.9446 191.574 105.937 191.574C134.235 191.574 157.164 168.616 157.164 140.282C157.164 111.948 134.235 88.9899 105.937 88.9899C92.5857 88.9899 79.9604 94.0755 70.5277 103.23C70.6728 99.1611 71.8338 93.6396 75.0264 87.6821C79.525 79.3998 90.8443 65.596 116.821 65.596C151.214 65.596 168.193 89.1352 184.591 111.803C193.733 124.444 202.441 136.504 213.615 142.898V169.633C213.324 195.933 203.747 219.618 188.074 237.781Z" fill="#25A1B0"/>
</g>
</g>
<path d="M297.942 165.816C290.734 165.816 284.24 164.252 278.46 161.124C272.68 157.928 268.124 153.542 264.792 147.966C261.528 142.39 259.896 136.168 259.896 129.3C259.896 122.432 261.528 116.21 264.792 110.634C268.124 105.058 272.68 100.706 278.46 97.578C284.24 94.382 290.734 92.784 297.942 92.784C305.082 92.784 311.542 94.382 317.322 97.578C323.102 100.706 327.624 105.058 330.888 110.634C334.152 116.142 335.784 122.364 335.784 129.3C335.784 136.236 334.152 142.492 330.888 148.068C327.624 153.576 323.102 157.928 317.322 161.124C311.542 164.252 305.082 165.816 297.942 165.816ZM297.942 156.738C303.178 156.738 307.87 155.548 312.018 153.168C316.234 150.788 319.532 147.524 321.912 143.376C324.36 139.16 325.584 134.468 325.584 129.3C325.584 124.132 324.36 119.474 321.912 115.326C319.532 111.11 316.234 107.812 312.018 105.432C307.87 103.052 303.178 101.862 297.942 101.862C292.706 101.862 287.946 103.052 283.662 105.432C279.446 107.812 276.114 111.11 273.666 115.326C271.286 119.474 270.096 124.132 270.096 129.3C270.096 134.468 271.286 139.16 273.666 143.376C276.114 147.524 279.446 150.788 283.662 153.168C287.946 155.548 292.706 156.738 297.942 156.738ZM359.33 120.018C361.03 116.89 363.546 114.51 366.878 112.878C370.21 111.246 374.256 110.43 379.016 110.43V119.916C378.472 119.848 377.724 119.814 376.772 119.814C371.468 119.814 367.286 121.412 364.226 124.608C361.234 127.736 359.738 132.224 359.738 138.072V165H349.946V110.94H359.33V120.018ZM414.149 165.612C408.641 165.612 403.711 164.422 399.359 162.042C395.075 159.662 391.709 156.398 389.261 152.25C386.813 148.034 385.589 143.274 385.589 137.97C385.589 132.666 386.813 127.94 389.261 123.792C391.709 119.576 395.075 116.312 399.359 114C403.711 111.62 408.641 110.43 414.149 110.43C419.045 110.43 423.397 111.416 427.205 113.388C431.081 115.36 434.073 118.216 436.181 121.956L428.735 126.75C427.035 124.166 424.927 122.228 422.411 120.936C419.895 119.644 417.107 118.998 414.047 118.998C410.511 118.998 407.315 119.78 404.459 121.344C401.671 122.908 399.461 125.152 397.829 128.076C396.265 130.932 395.483 134.23 395.483 137.97C395.483 141.778 396.265 145.144 397.829 148.068C399.461 150.924 401.671 153.134 404.459 154.698C407.315 156.262 410.511 157.044 414.047 157.044C417.107 157.044 419.895 156.398 422.411 155.106C424.927 153.814 427.035 151.876 428.735 149.292L436.181 153.984C434.073 157.724 431.081 160.614 427.205 162.654C423.397 164.626 419.045 165.612 414.149 165.612ZM468.544 110.43C476.024 110.43 481.736 112.266 485.68 115.938C489.692 119.61 491.698 125.084 491.698 132.36V165H482.416V157.86C480.784 160.376 478.438 162.314 475.378 163.674C472.386 164.966 468.816 165.612 464.668 165.612C458.616 165.612 453.754 164.15 450.082 161.226C446.478 158.302 444.676 154.46 444.676 149.7C444.676 144.94 446.41 141.132 449.878 138.276C453.346 135.352 458.854 133.89 466.402 133.89H481.906V131.952C481.906 127.736 480.682 124.506 478.234 122.262C475.786 120.018 472.182 118.896 467.422 118.896C464.226 118.896 461.098 119.44 458.038 120.528C454.978 121.548 452.394 122.942 450.286 124.71L446.206 117.366C448.994 115.122 452.326 113.422 456.202 112.266C460.078 111.042 464.192 110.43 468.544 110.43ZM466.3 158.064C470.04 158.064 473.27 157.248 475.99 155.616C478.71 153.916 480.682 151.536 481.906 148.476V140.928H466.81C458.514 140.928 454.366 143.716 454.366 149.292C454.366 152.012 455.42 154.154 457.528 155.718C459.636 157.282 462.56 158.064 466.3 158.064Z" fill="black"/>
<path d="M258.36 184.6H267.8C270.168 184.6 272.269 185.069 274.104 186.008C275.939 186.947 277.357 188.269 278.36 189.976C279.384 191.661 279.896 193.603 279.896 195.8C279.896 197.997 279.384 199.949 278.36 201.656C277.357 203.341 275.939 204.653 274.104 205.592C272.269 206.531 270.168 207 267.8 207H258.36V184.6ZM267.608 204.216C269.421 204.216 271.011 203.864 272.376 203.16C273.763 202.456 274.829 201.475 275.576 200.216C276.323 198.936 276.696 197.464 276.696 195.8C276.696 194.136 276.323 192.675 275.576 191.416C274.829 190.136 273.763 189.144 272.376 188.44C271.011 187.736 269.421 187.384 267.608 187.384H261.56V204.216H267.608ZM301.054 204.216V207H284.798V184.6H300.606V187.384H287.998V194.264H299.23V196.984H287.998V204.216H301.054ZM306.235 184.6H309.435V204.216H321.563V207H306.235V184.6ZM325.235 184.6H328.435V207H325.235V184.6ZM350.661 195.672H353.733V204.408C352.624 205.325 351.333 206.029 349.861 206.52C348.389 207.011 346.853 207.256 345.253 207.256C342.992 207.256 340.955 206.765 339.141 205.784C337.328 204.781 335.899 203.416 334.853 201.688C333.829 199.939 333.317 197.976 333.317 195.8C333.317 193.624 333.829 191.661 334.853 189.912C335.899 188.163 337.328 186.797 339.141 185.816C340.976 184.835 343.035 184.344 345.317 184.344C347.109 184.344 348.731 184.643 350.181 185.24C351.653 185.816 352.901 186.669 353.925 187.8L351.941 189.784C350.149 188.056 347.984 187.192 345.445 187.192C343.739 187.192 342.203 187.565 340.837 188.312C339.493 189.037 338.437 190.061 337.669 191.384C336.901 192.685 336.517 194.157 336.517 195.8C336.517 197.421 336.901 198.893 337.669 200.216C338.437 201.517 339.493 202.541 340.837 203.288C342.203 204.035 343.728 204.408 345.413 204.408C347.419 204.408 349.168 203.928 350.661 202.968V195.672ZM379.124 184.6V207H375.924V197.016H363.06V207H359.86V184.6H363.06V194.232H375.924V184.6H379.124ZM390.277 187.384H382.597V184.6H401.125V187.384H393.445V207H390.277V187.384ZM407.81 187.384V195.192H419.042V197.944H407.81V207H404.61V184.6H420.418V187.384H407.81ZM434.203 207.256C431.216 207.256 428.891 206.403 427.227 204.696C425.563 202.989 424.731 200.536 424.731 197.336V184.6H427.931V197.208C427.931 202.008 430.032 204.408 434.235 204.408C436.283 204.408 437.851 203.821 438.939 202.648C440.027 201.453 440.571 199.64 440.571 197.208V184.6H443.675V197.336C443.675 200.557 442.843 203.021 441.179 204.728C439.515 206.413 437.189 207.256 434.203 207.256ZM450.235 184.6H453.435V204.216H465.563V207H450.235V184.6ZM497.285 184.6L487.461 207H484.293L474.437 184.6H477.893L485.957 203L494.085 184.6H497.285ZM510.003 207.256C507.742 207.256 505.705 206.765 503.891 205.784C502.078 204.781 500.649 203.405 499.603 201.656C498.579 199.907 498.067 197.955 498.067 195.8C498.067 193.645 498.579 191.693 499.603 189.944C500.649 188.195 502.078 186.829 503.891 185.848C505.705 184.845 507.742 184.344 510.003 184.344C512.243 184.344 514.27 184.845 516.083 185.848C517.897 186.829 519.315 188.195 520.339 189.944C521.363 191.672 521.875 193.624 521.875 195.8C521.875 197.976 521.363 199.939 520.339 201.688C519.315 203.416 517.897 204.781 516.083 205.784C514.27 206.765 512.243 207.256 510.003 207.256ZM510.003 204.408C511.646 204.408 513.118 204.035 514.419 203.288C515.742 202.541 516.777 201.517 517.523 200.216C518.291 198.893 518.675 197.421 518.675 195.8C518.675 194.179 518.291 192.717 517.523 191.416C516.777 190.093 515.742 189.059 514.419 188.312C513.118 187.565 511.646 187.192 510.003 187.192C508.361 187.192 506.867 187.565 505.523 188.312C504.201 189.059 503.155 190.093 502.387 191.416C501.641 192.717 501.267 194.179 501.267 195.8C501.267 197.421 501.641 198.893 502.387 200.216C503.155 201.517 504.201 202.541 505.523 203.288C506.867 204.035 508.361 204.408 510.003 204.408ZM526.766 184.6H529.966V207H526.766V184.6ZM545.409 184.6C548.31 184.6 550.593 185.293 552.257 186.68C553.921 188.067 554.753 189.976 554.753 192.408C554.753 194.84 553.921 196.749 552.257 198.136C550.593 199.523 548.31 200.216 545.409 200.216H539.873V207H536.673V184.6H545.409ZM545.313 197.432C547.339 197.432 548.886 197.005 549.953 196.152C551.019 195.277 551.553 194.029 551.553 192.408C551.553 190.787 551.019 189.549 549.953 188.696C548.886 187.821 547.339 187.384 545.313 187.384H539.873V197.432H545.313Z" fill="#25A1B0"/>
</g>
<defs>
<clipPath id="clip0_7_208">
<rect width="557" height="280" fill="white" transform="translate(0 0.5)"/>
</clipPath>
<clipPath id="clip1_7_208">
<rect width="220" height="280" fill="white" transform="translate(0 0.5)"/>
</clipPath>
<clipPath id="clip2_7_208">
<rect width="220" height="280" fill="white" transform="translate(0 0.5)"/>
</clipPath>
</defs>
</svg>
